<svg width="821" height="821" viewBox="0 0 821 821" fill="none" xmlns="http://www.w3.org/2000/svg">
<path fill-rule="evenodd" clip-rule="evenodd" d="M502 267C634.548 267 742 374.452 742 507C742 639.548 674.548 807 562 807C476.683 807 348.324 710.777 291.205 606.475C288.189 606.822 285.115 607 282 607C237.817 607 202 571.183 202 527C202 487.135 231.159 454.08 269.312 448.001C295.599 343.979 389.81 267 502 267ZM265.859 512.545L274.141 543.455Z" fill="white"/>
<path d="M265.859 512.545L274.141 543.455M502 267C634.548 267 742 374.452 742 507C742 639.548 674.548 807 562 807C476.683 807 348.324 710.777 291.205 606.475C288.189 606.822 285.115 607 282 607C237.817 607 202 571.183 202 527C202 487.135 231.159 454.08 269.312 448.001C295.599 343.979 389.81 267 502 267Z" stroke="#222829" stroke-width="24" stroke-linecap="round" stroke-linejoin="round"/>
<path d="M601 582.381C630.333 575.46 648 565.333 654 552C663 532 607.033 494.393 630.161 467" stroke="#222829" stroke-width="16" stroke-linecap="round" stroke-linejoin="round"/>
<path d="M511 658.087C538.795 657.624 559.628 655.885 573.5 652.87C587.372 649.854 606.538 642.897 631 632" stroke="#222829" stroke-width="16" stroke-linecap="round" stroke-linejoin="round"/>
<path d="M606 642.435C606 666.783 598.5 682.435 583.5 689.391C568.5 696.348 546.833 685.913 518.5 658.087" stroke="#222829" stroke-width="16" stroke-linecap="round" stroke-linejoin="round"/>
<path d="M447.142 662C443.612 653.687 444.445 644.853 449.642 635.5C454.838 626.147 462.338 619.98 472.142 617" stroke="#222829" stroke-width="16" stroke-linecap="round" stroke-linejoin="round"/>
<path d="M716.055 428.73C702.372 438.082 691.948 443.552 684.783 445.139C677.619 446.726 666.098 446.119 650.22 443.316" stroke="#222829" stroke-width="12" stroke-linecap="round" stroke-linejoin="round"/>
<path d="M503.945 428.73C517.628 438.082 528.052 443.552 535.216 445.139C542.381 446.726 553.902 446.119 569.78 443.316" stroke="#222829" stroke-width="12" stroke-linecap="round" stroke-linejoin="round"/>
<path fill-rule="evenodd" clip-rule="evenodd" d="M540 373.719C560.574 376.796 575.574 382.965 585 392.227C570 386.618 555 383.814 540 383.814C525 383.814 506.667 386.618 485 392.227L495 378.766C504.426 372.324 519.426 370.641 540 373.719ZM678 373.719C698.574 370.641 713.574 372.324 723 378.766L733 392.227C711.333 386.618 693 383.814 678 383.814C663 383.814 648 386.618 633 392.227C642.426 382.965 657.426 376.796 678 373.719Z" fill="#222829" stroke="#222829" stroke-width="16" stroke-linecap="round" stroke-linejoin="round"/>
<path fill-rule="evenodd" clip-rule="evenodd" d="M598.818 428.211C597.074 430.908 595.862 435.894 595.182 443.17H586.455C583.545 416.101 564.394 402.092 529 401.142C499.424 399.243 481.727 411.115 475.909 436.759H464.273L449 421.8V398.293C481.485 390.22 508.152 386.896 529 388.321C544.225 389.361 562.26 393.138 583.627 397.933L591.545 399.718C595.215 400.547 601.033 401.497 609 402.567L611.074 402.285C617.985 401.329 623.111 400.474 626.455 399.718L635.342 397.715C656.286 393.024 674.005 389.345 689 388.321C709.64 386.91 735.982 390.154 768.027 398.052L769 398.293V421.8L753.727 436.759H742.091C736.273 411.115 718.576 399.243 689 401.142C653.96 402.083 634.839 415.822 631.638 442.362L631.545 443.17H622.818L622.73 442.272C622.036 435.483 620.853 430.796 619.182 428.211C617.483 425.583 614.217 423.487 609.385 421.922L609 421.8C603.956 423.377 600.562 425.514 598.818 428.211Z" fill="#222829" stroke="#222829" stroke-width="4" stroke-linecap="round" stroke-linejoin="round"/>
<path d="M475.909 436.438C475.909 473.479 493.606 492 529 492C564.394 492 583.546 475.616 586.455 442.849" stroke="#222829" stroke-width="6" stroke-linecap="round" stroke-linejoin="round"/>
<path d="M742.091 436.438C742.091 473.479 724.394 492 689 492C653.606 492 634.454 475.616 631.545 442.849" stroke="#222829" stroke-width="6" stroke-linecap="round" stroke-linejoin="round"/>
<path fill-rule="evenodd" clip-rule="evenodd" d="M458 397L263 429L259 438L458 418V397Z" fill="#222829" stroke="#222829" stroke-width="4" stroke-linecap="round" stroke-linejoin="round"/>
<path fill-rule="evenodd" clip-rule="evenodd" d="M202 14C262.22 14 314.152 49.487 338.024 100.69C380.239 82.4471 429.304 74 485 74C599.126 74 673.748 124.595 717 192C738.389 225.333 751.389 281.667 756 361H650L620 296V361H502L470 280L473 361H355C359.667 381.667 361 400.333 359 417C356 442 331.052 477.961 328 474C322.543 466.918 303.32 451.08 270 455C247.333 457.667 219 484 210 513C186.029 457.082 168.509 364.748 177.442 311.999C106.283 300.282 52 238.48 52 164C52 81.1573 119.157 14 202 14Z" fill="#222829" stroke="#222829" stroke-width="12" stroke-linecap="round" stroke-linejoin="round"/>
</svg>
