<svg width="692" height="692" viewBox="0 0 692 692" fill="none" xmlns="http://www.w3.org/2000/svg">
<g clip-path="url(#clip0_601_1377)">
<path fill-rule="evenodd" clip-rule="evenodd" d="M356 162.668C488.548 162.668 596 270.12 596 402.668C596 535.216 488.548 682.668 356 682.668C256.699 682.668 171.484 599.911 134.982 502.661C91.2687 502.117 56 466.511 56 422.668C56 382.803 85.1588 349.748 123.312 343.669C149.599 239.647 243.81 162.668 356 162.668ZM119.859 408.213L128.141 439.123Z" fill="white"/>
<path d="M119.859 408.213L128.141 439.123M356 162.668C488.548 162.668 596 270.12 596 402.668C596 535.216 488.548 682.668 356 682.668C256.699 682.668 171.484 599.911 134.982 502.661C91.2687 502.117 56 466.511 56 422.668C56 382.803 85.1588 349.748 123.312 343.669C149.599 239.647 243.81 162.668 356 162.668Z" stroke="#222829" stroke-width="24" stroke-linecap="round" stroke-linejoin="round"/>
<path d="M454.406 353.615C475.141 405.92 486.617 435.481 488.835 442.298C491.052 449.115 490.459 456.334 487.055 463.953" stroke="#222829" stroke-width="16" stroke-linecap="round" stroke-linejoin="round"/>
<path fill-rule="evenodd" clip-rule="evenodd" d="M353 524.668C353 524.668 419 538.668 451 538.668C483 538.668 513 529.196 513 529.196C513 529.196 512 597.668 442 597.668C372 597.668 353 524.668 353 524.668Z" stroke="#222829" stroke-width="16" stroke-linecap="round" stroke-linejoin="round"/>
<path d="M390.229 342.244C401.274 342.244 410.229 333.289 410.229 322.244C410.229 311.198 401.274 302.244 390.229 302.244C379.183 302.244 370.229 311.198 370.229 322.244C370.229 333.289 379.183 342.244 390.229 342.244Z" fill="#222829"/>
<path d="M342 324.668C358 311.335 374 304.668 390 304.668C406 304.668 422 311.335 438 324.668" stroke="#222829" stroke-width="12" stroke-linecap="round" stroke-linejoin="round"/>
<path d="M535.771 342.244C524.726 342.244 515.771 333.289 515.771 322.244C515.771 311.198 524.726 302.244 535.771 302.244C546.817 302.244 555.771 311.198 555.771 322.244C555.771 333.289 546.817 342.244 535.771 342.244Z" fill="#222829"/>
<path d="M584 324.668C568 311.335 552 304.668 536 304.668C520 304.668 504 311.335 488 324.668" stroke="#222829" stroke-width="12" stroke-linecap="round" stroke-linejoin="round"/>
<path d="M349 291.668C361.889 281.001 376.889 275.668 394 275.668C411.111 275.668 426.111 281.001 439 291.668" stroke="#222829" stroke-width="16" stroke-linecap="round" stroke-linejoin="round"/>
<path d="M487 291.668C499.889 281.001 514.889 275.668 532 275.668C549.111 275.668 564.111 281.001 577 291.668" stroke="#222829" stroke-width="16" stroke-linecap="round" stroke-linejoin="round"/>
<path fill-rule="evenodd" clip-rule="evenodd" d="M398.19 286.022C410.612 286.916 425.019 290.03 441.409 295.365C446.107 296.895 453.521 297.78 463.65 298.023L464.337 298.006C474.116 297.74 481.3 296.86 485.892 295.365C502.282 290.03 516.689 286.916 529.111 286.022C546.696 284.757 575.031 286.883 614.113 292.4L615.301 292.568V313.297C610.298 315.496 607.752 317.678 607.664 319.843C605.482 373.303 587.64 389.668 547.658 389.668C509.152 389.668 490.86 368.764 474.561 325.298C472.424 319.601 468.893 316.693 463.967 316.574L463.65 316.57C458.559 316.57 454.922 319.48 452.74 325.298C436.441 368.764 418.149 389.668 379.643 389.668C339.661 389.668 321.819 373.303 319.637 319.843C319.549 317.678 317.003 315.497 312.001 313.298L312 313.668L113 333.668L117 324.668L311.999 292.668L312 292.568C351.697 286.926 380.427 284.744 398.19 286.022ZM388.612 292.639C356.972 290.457 342.789 297.003 336.243 304.641C329.697 312.278 317.696 378.829 375.519 382.102C433.343 385.375 438.798 317.733 435.525 310.096C432.252 302.459 420.251 294.821 388.612 292.639ZM538.581 292.639C506.942 294.821 494.941 302.459 491.667 310.096C488.394 317.733 493.85 385.375 551.673 382.102C609.497 378.829 597.496 312.278 590.949 304.641C584.403 297.003 570.22 290.457 538.581 292.639Z" fill="#222829" stroke="#222829" stroke-width="4" stroke-linecap="round" stroke-linejoin="round"/>
<path fill-rule="evenodd" clip-rule="evenodd" d="M328 10.668C407.026 5.63804 450 8.66804 538 67.668C596.666 107.001 629.666 161.668 637 231.668L634.24 227.343C622.832 209.54 613.752 196.315 607 187.668C600.732 179.642 587.732 169.892 567.999 158.415C567.263 159.409 566.413 160.386 565.451 161.35C583.823 182.597 598.673 202.37 610 220.668C622.854 241.436 627.188 264.102 623 288.668C617.666 274.668 611 262.335 603 251.668C595 241.001 583.666 232.668 569 226.668L570.039 228.42C583.952 251.946 593.216 270.202 597.831 283.189L598 283.668C602.666 297.001 605.666 321.668 607 357.668C597.666 327.668 586 300.668 572 276.668C558 252.668 523 227.335 467 200.668C468.279 207.979 472.612 215.979 480 224.668C487.387 233.358 496.387 242.358 507 251.668C484.028 241.778 462.941 231.753 443.74 221.592L442 220.668C422.334 210.191 397.046 193.524 366.135 170.668L368.287 173.205C385.37 193.283 399.274 208.104 410 217.668C421.172 227.63 433.838 236.297 448 243.668C431.109 244.845 413.436 244.886 394.98 243.79L393 243.668C373.827 242.449 344.981 239.449 306.461 234.668L308.353 235.516C327.778 244.184 343.145 249.859 354.455 252.541L355 252.668C366.72 255.378 383.72 258.712 406 262.668C385.061 267.284 365.842 270.251 348.342 271.57L347 271.668C329.141 272.934 301.765 271.601 264.869 267.668L268.951 269.023C290.421 276.11 307.104 280.992 319 283.668L320.258 283.947C332.793 286.686 349.893 289.26 371.56 291.668L369.447 292.146C341.785 298.383 320.636 302.223 306 303.668C291.265 305.123 273.003 305.149 251.214 303.747L250 303.668L232 378.668L213.284 324.474L212.918 326.6C209.112 348.506 202.153 382.738 192.041 429.298L190 438.668L152.116 348.493H111.145C83.698 297.721 73.983 261.779 82 240.668C85.57 231.266 92.856 222.247 103.858 213.611C99.095 176.151 124.809 147.17 181 126.668C226.315 52.688 275.315 14.021 328 10.668Z" fill="#222829" stroke="#222829" stroke-width="12" stroke-linecap="round" stroke-linejoin="round"/>
</g>
<defs>
<clipPath id="clip0_601_1377">
<rect width="692" height="692" fill="white"/>
</clipPath>
</defs>
</svg>
